HIERARCHY
ROOT Hips
{
	OFFSET 0.000000 100.481300 0.000000
	CHANNELS 6 Xposition Yposition Zposition Xrotation Yrotation Zrotation
	JOINT Spine
	{
		OFFSET -0.279200 12.230698 -2.892100
		CHANNELS 3 Xrotation Yrotation Zrotation
		JOINT Spine1
		{
			OFFSET -0.325700 14.269203 -3.374200
			CHANNELS 3 Xrotation Yrotation Zrotation
			JOINT Spine2
			{
				OFFSET -0.372300 16.307602 -0.352600
				CHANNELS 3 Xrotation Yrotation Zrotation
				JOINT Neck
				{
					OFFSET -0.418800 17.814194 8.416900
					CHANNELS 3 Xrotation Yrotation Zrotation
					JOINT Head
					{
						OFFSET 0.000000 7.031097 3.806800
						CHANNELS 3 Xrotation Yrotation Zrotation
						JOINT HeadTop_End
						{
							OFFSET 0.000000 24.646606 12.978600
							CHANNELS 3 Xrotation Yrotation Zrotation
							End Site
							{
								OFFSET 0.000000 27.854965 0.000000
							}
						}
					}
				}
				JOINT LeftShoulder
				{
					OFFSET 16.952999 14.495407 -7.737500
					CHANNELS 3 Xrotation Yrotation Zrotation
					JOINT LeftArm
					{
						OFFSET 9.308998 -2.777710 0.208600
						CHANNELS 3 Xrotation Yrotation Zrotation
						JOINT LeftForeArm
						{
							OFFSET 29.972298 0.000000 0.000000
							CHANNELS 3 Xrotation Yrotation Zrotation
							JOINT LeftHand
							{
								OFFSET 26.026505 0.000000 0.000000
								CHANNELS 3 Xrotation Yrotation Zrotation
								JOINT LeftHandThumb1
								{
									OFFSET 12.240501 -7.147949 9.207150
									CHANNELS 3 Xrotation Yrotation Zrotation
									JOINT LeftHandThumb2
									{
										OFFSET 4.138618 -2.389435 2.389433
										CHANNELS 3 Xrotation Yrotation Zrotation
										JOINT LeftHandThumb3
										{
											OFFSET 2.726913 -1.574387 1.574386
											CHANNELS 3 Xrotation Yrotation Zrotation
											JOINT LeftHandThumb4
											{
												OFFSET 3.941010 -2.275345 2.275342
												CHANNELS 3 Xrotation Yrotation Zrotation
												End Site
												{
													OFFSET -0.005798 5.087799 0.009903
												}
											}
										}
									}
								}
								JOINT LeftHandIndex1
								{
									OFFSET 24.424698 -1.985611 5.953459
									CHANNELS 3 Xrotation Yrotation Zrotation
									JOINT LeftHandIndex2
									{
										OFFSET 6.426697 0.000000 0.000000
										CHANNELS 3 Xrotation Yrotation Zrotation
										JOINT LeftHandIndex3
										{
											OFFSET 5.337898 0.000000 0.000000
											CHANNELS 3 Xrotation Yrotation Zrotation
											JOINT LeftHandIndex4
											{
												OFFSET 4.409401 0.000000 0.000000
												CHANNELS 3 Xrotation Yrotation Zrotation
												End Site
												{
													OFFSET 0.000000 4.409363 0.014373
												}
											}
										}
									}
								}
								JOINT LeftHandMiddle1
								{
									OFFSET 23.810104 0.000000 0.000000
									CHANNELS 3 Xrotation Yrotation Zrotation
									JOINT LeftHandMiddle2
									{
										OFFSET 7.176498 0.000000 0.000000
										CHANNELS 3 Xrotation Yrotation Zrotation
										JOINT LeftHandMiddle3
										{
											OFFSET 6.774902 0.000000 0.000000
											CHANNELS 3 Xrotation Yrotation Zrotation
											JOINT LeftHandMiddle4
											{
												OFFSET 5.403328 0.000000 0.000000
												CHANNELS 3 Xrotation Yrotation Zrotation
												End Site
												{
													OFFSET -0.027702 5.403244 0.017414
												}
											}
										}
									}
								}
								JOINT LeftHandRing1
								{
									OFFSET 22.908401 -0.839279 -6.020567
									CHANNELS 3 Xrotation Yrotation Zrotation
									JOINT LeftHandRing2
									{
										OFFSET 6.337502 0.000000 0.000000
										CHANNELS 3 Xrotation Yrotation Zrotation
										JOINT LeftHandRing3
										{
											OFFSET 5.779297 0.000000 0.000000
											CHANNELS 3 Xrotation Yrotation Zrotation
											JOINT LeftHandRing4
											{
												OFFSET 4.965698 0.000000 0.000000
												CHANNELS 3 Xrotation Yrotation Zrotation
												End Site
												{
													OFFSET 0.000000 4.965668 0.016186
												}
											}
										}
									}
								}
								JOINT LeftHandPinky1
								{
									OFFSET 20.037003 -1.530319 -10.950146
									CHANNELS 3 Xrotation Yrotation Zrotation
									JOINT LeftHandPinky2
									{
										OFFSET 5.254700 0.000000 0.000000
										CHANNELS 3 Xrotation Yrotation Zrotation
										JOINT LeftHandPinky3
										{
											OFFSET 4.810204 0.000000 0.000000
											CHANNELS 3 Xrotation Yrotation Zrotation
											JOINT LeftHandPinky4
											{
												OFFSET 3.647202 0.000000 0.000000
												CHANNELS 3 Xrotation Yrotation Zrotation
												End Site
												{
													OFFSET 0.000000 3.647186 0.011889
												}
											}
										}
									}
								}
							}
						}
					}
				}
				JOINT RightShoulder
				{
					OFFSET -15.141001 14.495407 -7.737500
					CHANNELS 3 Xrotation Yrotation Zrotation
					JOINT RightArm
					{
						OFFSET -9.308998 -2.777710 0.208500
						CHANNELS 3 Xrotation Yrotation Zrotation
						JOINT RightForeArm
						{
							OFFSET -29.972300 0.000000 0.000000
							CHANNELS 3 Xrotation Yrotation Zrotation
							JOINT RightHand
							{
								OFFSET -26.026505 0.000000 0.000000
								CHANNELS 3 Xrotation Yrotation Zrotation
								JOINT RightHandThumb1
								{
									OFFSET -12.240601 -7.148026 9.207092
									CHANNELS 3 Xrotation Yrotation Zrotation
									JOINT RightHandThumb2
									{
										OFFSET -4.138618 -2.389435 2.389433
										CHANNELS 3 Xrotation Yrotation Zrotation
										JOINT RightHandThumb3
										{
											OFFSET -2.726974 -1.574417 1.574421
											CHANNELS 3 Xrotation Yrotation Zrotation
											JOINT RightHandThumb4
											{
												OFFSET -3.941010 -2.275345 2.275343
												CHANNELS 3 Xrotation Yrotation Zrotation
												End Site
												{
													OFFSET 0.005814 5.087799 0.009927
												}
											}
										}
									}
								}
								JOINT RightHandIndex1
								{
									OFFSET -24.424698 -1.985657 5.953444
									CHANNELS 3 Xrotation Yrotation Zrotation
									JOINT RightHandIndex2
									{
										OFFSET -6.426697 0.000000 0.000000
										CHANNELS 3 Xrotation Yrotation Zrotation
										JOINT RightHandIndex3
										{
											OFFSET -5.337898 0.000000 0.000000
											CHANNELS 3 Xrotation Yrotation Zrotation
											JOINT RightHandIndex4
											{
												OFFSET -4.409401 0.000000 0.000000
												CHANNELS 3 Xrotation Yrotation Zrotation
												End Site
												{
													OFFSET 0.000000 4.409363 0.014408
												}
											}
										}
									}
								}
								JOINT RightHandMiddle1
								{
									OFFSET -23.810097 0.000000 0.000000
									CHANNELS 3 Xrotation Yrotation Zrotation
									JOINT RightHandMiddle2
									{
										OFFSET -7.176498 0.000000 0.000000
										CHANNELS 3 Xrotation Yrotation Zrotation
										JOINT RightHandMiddle3
										{
											OFFSET -6.774902 0.000000 0.000000
											CHANNELS 3 Xrotation Yrotation Zrotation
											JOINT RightHandMiddle4
											{
												OFFSET -5.403328 0.000000 0.000000
												CHANNELS 3 Xrotation Yrotation Zrotation
												End Site
												{
													OFFSET 0.027702 5.403244 0.017457
												}
											}
										}
									}
								}
								JOINT RightHandRing1
								{
									OFFSET -22.908302 -0.839325 -6.020576
									CHANNELS 3 Xrotation Yrotation Zrotation
									JOINT RightHandRing2
									{
										OFFSET -6.337502 0.000000 0.000000
										CHANNELS 3 Xrotation Yrotation Zrotation
										JOINT RightHandRing3
										{
											OFFSET -5.779297 0.000000 0.000000
											CHANNELS 3 Xrotation Yrotation Zrotation
											JOINT RightHandRing4
											{
												OFFSET -4.965698 0.000000 0.000000
												CHANNELS 3 Xrotation Yrotation Zrotation
												End Site
												{
													OFFSET 0.000000 4.965668 0.016226
												}
											}
										}
									}
								}
								JOINT RightHandPinky1
								{
									OFFSET -20.037003 -1.530334 -10.950259
									CHANNELS 3 Xrotation Yrotation Zrotation
									JOINT RightHandPinky2
									{
										OFFSET -5.254700 0.000000 0.000000
										CHANNELS 3 Xrotation Yrotation Zrotation
										JOINT RightHandPinky3
										{
											OFFSET -4.810204 0.000000 0.000000
											CHANNELS 3 Xrotation Yrotation Zrotation
											JOINT RightHandPinky4
											{
												OFFSET -3.647202 0.000000 0.000000
												CHANNELS 3 Xrotation Yrotation Zrotation
												End Site
												{
													OFFSET 0.000000 3.647186 0.011917
												}
											}
										}
									}
								}
							}
						}
					}
				}
			}
		}
	}
	JOINT LeftUpLeg
	{
		OFFSET 15.427100 -6.655098 0.678600
		CHANNELS 3 Xrotation Yrotation Zrotation
		JOINT LeftLeg
		{
			OFFSET 4.081073 -39.591068 13.024000
			CHANNELS 3 Xrotation Yrotation Zrotation
			JOINT LeftFoot
			{
				OFFSET -4.081074 -37.707932 -15.979700
				CHANNELS 3 Xrotation Yrotation Zrotation
				JOINT LeftToeBase
				{
					OFFSET 5.346399 -15.068900 20.645000
					CHANNELS 3 Xrotation Yrotation Zrotation
					JOINT LeftToe_End
					{
						OFFSET 2.754700 0.931300 11.300900
						CHANNELS 3 Xrotation Yrotation Zrotation
						End Site
						{
							OFFSET 0.000000 11.669021 0.000000
						}
					}
				}
			}
		}
	}
	JOINT RightUpLeg
	{
		OFFSET -15.569500 -6.655098 0.678600
		CHANNELS 3 Xrotation Yrotation Zrotation
		JOINT RightLeg
		{
			OFFSET -4.081825 -39.591045 13.023800
			CHANNELS 3 Xrotation Yrotation Zrotation
			JOINT RightFoot
			{
				OFFSET 4.081824 -37.707954 -15.979600
				CHANNELS 3 Xrotation Yrotation Zrotation
				JOINT RightToeBase
				{
					OFFSET -5.346400 -15.068900 20.645000
					CHANNELS 3 Xrotation Yrotation Zrotation
					JOINT RightToe_End
					{
						OFFSET -2.754700 0.931300 11.300900
						CHANNELS 3 Xrotation Yrotation Zrotation
						End Site
						{
							OFFSET 0.000000 11.669021 0.000000
						}
					}
				}
			}
		}
	}
}
MOTION
Frames: 6
Frame Time: 0.033333
1.486626 90.320435 -1.743462 -16.971924 -39.313958 -8.510960 7.992403 0.151767 -1.102823 16.413457 -0.125525 -0.745989 16.413522 -0.192916 -0.721089 0.367406 7.480955 0.837548 -6.982138 21.597270 11.882996 -0.000000 -0.000001 0.000001 -37.571064 -4.822516 1.545827 -41.628425 -7.015803 -61.684388 -0.000017 -64.995882 -0.000017 -119.359605 1.120079 32.550240 4.701713 9.564119 3.109084 19.473189 -1.474925 7.636925 -4.536193 -9.613083 1.492964 -0.000001 0.000002 0.000001 -0.212820 3.933701 -36.747009 2.942259 5.078983 -60.146011 0.513680 2.400820 -24.150502 -0.000000 -0.000001 -0.000001 0.405928 5.507044 -52.453155 3.387127 5.308622 -65.057477 0.282014 1.797462 -17.832365 -0.000001 0.000001 0.000003 -0.074384 5.736784 -61.061420 4.055041 5.569508 -72.094907 0.582672 2.548970 -25.748010 0.000000 0.000001 0.000001 -6.565567 4.545133 -72.425229 3.299622 5.267215 -64.107814 0.175345 1.424015 -14.038880 -0.000001 -0.000001 -0.000003 -41.176294 -8.605644 -9.942309 -46.819693 58.242956 100.948700 0.000051 98.442970 -0.000044 -52.463093 -17.216610 -29.273122 8.377151 -4.904122 11.022008 21.620190 -18.183907 -18.379228 -0.702895 -49.821210 -32.535145 -0.000002 -0.000001 0.000003 -0.920024 1.683573 12.434988 0.748117 -2.533461 32.898286 0.615646 -2.316065 29.767829 0.000000 0.000001 -0.000001 3.413059 -7.186267 51.650256 6.296820 -4.359580 110.634680 0.248716 -1.503059 18.790260 -0.000000 -0.000000 0.000000 -3.349041 -2.600432 57.010568 5.440856 -4.590911 99.698168 1.689403 -3.590705 50.382255 0.000000 0.000002 -0.000001 -3.996435 -3.303945 64.593864 4.058844 -4.618669 82.610523 2.315546 -4.026786 59.787200 -0.000001 -0.000000 0.000004 -19.691697 43.634182 27.886885 23.866329 -0.360637 -1.060541 1.173649 2.025277 -4.098206 0.000018 -0.000002 0.000002 0.000000 -0.000001 0.000000 8.090846 5.369347 -8.080223 28.379972 0.130518 1.350454 -21.559485 -18.000912 5.110229 -0.020497 0.000002 0.000001 0.000000 0.000002 0.000000 
1.506474 90.371040 -1.674658 -17.075772 -39.237627 -8.527939 8.202583 0.197118 -1.115890 16.053757 -0.150042 -0.715850 16.053752 -0.215476 -0.690417 0.394186 7.510426 0.802933 -6.987236 21.649137 11.891475 0.000002 -0.000001 0.000002 -37.565234 -4.762380 1.671008 -41.278996 -6.977186 -62.062698 -0.000087 -64.454958 -0.000082 -119.260034 1.322267 32.286970 4.639080 9.352852 3.106906 19.473192 -1.474919 7.636926 -4.536190 -9.613088 1.492965 0.000002 0.000000 0.000000 -0.248531 3.890720 -36.816280 2.942260 5.078965 -60.146004 0.513687 2.400820 -24.150500 0.000000 -0.000001 0.000001 0.405928 5.507045 -52.453151 3.387131 5.308623 -65.057477 0.282009 1.797462 -17.832374 -0.000000 0.000000 0.000003 -0.074384 5.736781 -61.061413 4.063304 5.572155 -72.180032 0.582669 2.548970 -25.748008 0.000000 0.000002 -0.000001 -6.360028 4.572699 -72.237092 3.324106 5.278972 -64.374267 0.189578 1.479773 -14.600740 -0.000002 0.000001 -0.000001 -41.184921 -8.592740 -9.981851 -46.460511 58.490844 100.858357 -0.000147 98.178403 0.000168 -52.701067 -16.986554 -29.283213 8.377151 -4.904123 11.022007 21.620190 -18.183907 -18.379223 -0.702897 -49.821206 -32.535145 -0.000002 -0.000000 0.000002 -0.924309 1.677473 12.496920 0.761291 -2.553702 33.195242 0.615645 -2.316065 29.767836 -0.000000 -0.000000 -0.000001 3.413058 -7.186267 51.650256 6.296820 -4.359580 110.634680 0.248716 -1.503059 18.790259 -0.000000 -0.000000 0.000000 -3.349040 -2.600432 57.010571 5.440856 -4.590912 99.698168 1.689404 -3.590706 50.382248 0.000000 -0.000001 0.000002 -3.996434 -3.303946 64.593864 4.058844 -4.618670 82.610523 2.315546 -4.026785 59.787207 -0.000000 -0.000001 0.000001 -19.375934 43.665092 27.667326 23.748660 -0.396483 -1.080474 1.154531 2.095742 -4.059808 -0.392147 -0.000008 0.000003 0.000000 0.000000 0.000000 8.309893 5.304243 -8.125580 28.235683 0.151664 1.279608 -21.520425 -18.069827 5.168142 0.306487 0.000002 0.000002 -0.000000 -0.000002 0.000000 
1.533645 90.448830 -1.550676 -17.060783 -38.960236 -8.422117 8.380552 0.074269 -1.113159 15.673227 -0.205546 -0.677660 15.673264 -0.268920 -0.651739 0.408163 7.520181 0.823943 -7.057056 21.655883 11.966896 0.000001 -0.000001 -0.000003 -37.561276 -4.721506 1.765603 -40.845457 -6.798264 -62.404672 0.000078 -64.150352 0.000092 -119.132528 1.525336 32.164758 4.573913 9.142841 3.103622 19.473192 -1.474918 7.636922 -4.536192 -9.613092 1.492966 0.000001 0.000001 0.000001 -0.284347 3.847824 -36.885583 2.942374 5.079042 -60.147281 0.513683 2.400820 -24.150504 0.000001 0.000001 -0.000004 0.405928 5.507046 -52.453155 3.387131 5.308621 -65.057477 0.282015 1.797462 -17.832374 0.000005 0.000003 -0.000001 -0.074383 5.736785 -61.061420 4.071559 5.574797 -72.265150 0.582665 2.548971 -25.748013 -0.000000 0.000001 -0.000004 -6.154683 4.601694 -72.049145 3.348651 5.290630 -64.640712 0.204360 1.535376 -15.162619 -0.000002 -0.000002 -0.000002 -41.205131 -8.597358 -10.090395 -46.177615 58.725311 100.931645 0.000385 98.014997 -0.000396 -52.907697 -16.831396 -29.367867 8.377149 -4.904122 11.022008 21.620189 -18.183908 -18.379221 -0.702895 -49.821206 -32.535142 0.000000 -0.000001 0.000001 -0.928616 1.671354 12.558866 0.774574 -2.573882 33.492222 0.615646 -2.316065 29.767832 -0.000000 0.000000 -0.000001 3.413058 -7.186267 51.650256 6.296820 -4.359580 110.634680 0.248716 -1.503059 18.790259 -0.000000 -0.000000 -0.000000 -3.349041 -2.600432 57.010575 5.440857 -4.590911 99.698161 1.689404 -3.590706 50.382248 -0.000000 -0.000000 -0.000001 -3.996435 -3.303945 64.593864 4.058844 -4.618671 82.610523 2.315546 -4.026786 59.787200 -0.000001 0.000000 -0.000001 -19.005768 43.589308 27.219332 23.594400 -0.531206 -1.083700 1.128943 2.240110 -3.951697 -1.038020 -0.000009 0.000002 0.000000 0.000001 0.000000 8.621379 5.102799 -8.259158 27.962069 0.138807 1.289699 -21.489100 -18.171674 5.234128 0.769749 -0.000009 -0.000002 -0.000000 -0.000002 -0.000000 
1.585545 90.500229 -1.339775 -16.939084 -38.479879 -8.311632 8.574872 -0.136146 -1.012310 15.277808 -0.273569 -0.626318 15.277774 -0.334897 -0.599912 0.381542 7.488177 0.908975 -7.189118 21.545033 12.088547 -0.000001 -0.000000 -0.000000 -37.564049 -4.759459 1.740844 -40.502950 -6.655315 -62.710958 0.000040 -63.786870 0.000036 -118.957867 1.764309 32.051250 4.506021 8.934193 3.099124 19.473194 -1.474919 7.636923 -4.536190 -9.613090 1.492966 0.000001 -0.000002 0.000001 -0.320275 3.805006 -36.954916 2.942508 5.079125 -60.148654 0.513681 2.400820 -24.150504 -0.000002 -0.000001 -0.000002 0.405928 5.507044 -52.453151 3.387126 5.308622 -65.057484 0.282010 1.797461 -17.832377 -0.000001 0.000001 0.000002 -0.074384 5.736783 -61.061413 4.079835 5.577419 -72.350261 0.582666 2.548969 -25.748013 0.000003 -0.000001 -0.000002 -5.949534 4.632131 -71.861404 3.373255 5.302163 -64.907219 0.219690 1.590830 -15.724545 0.000000 -0.000004 -0.000000 -41.234836 -8.610578 -10.251951 -45.853768 58.937354 100.920840 0.000700 97.871352 -0.000704 -53.132356 -16.647341 -29.488382 8.377149 -4.904122 11.022007 21.620190 -18.183905 -18.379223 -0.702894 -49.821206 -32.535142 -0.000003 0.000002 0.000003 -0.932849 1.665259 12.620795 0.787941 -2.593982 33.789216 0.615645 -2.316066 29.767832 -0.000000 0.000000 0.000000 3.413058 -7.186267 51.650256 6.296819 -4.359580 110.634680 0.248716 -1.503059 18.790259 -0.000000 0.000000 0.000000 -3.349042 -2.600432 57.010571 5.440856 -4.590911 99.698174 1.689403 -3.590706 50.382248 0.000000 -0.000001 0.000003 -3.996435 -3.303946 64.593864 4.058844 -4.618669 82.610523 2.315546 -4.026785 59.787207 0.000000 0.000002 0.000003 -19.082891 43.370687 26.865181 23.936832 -0.598929 -0.970433 0.833163 2.212504 -3.146508 -1.934909 0.000003 0.000001 0.000000 -0.000001 -0.000000 9.020051 4.828456 -8.387757 27.609513 0.040106 1.383030 -21.491175 -18.302023 5.351713 1.315214 0.000007 -0.000000 -0.000000 -0.000000 -0.000000 
1.681659 90.436172 -1.008362 -16.814471 -37.932262 -8.341973 8.832463 -0.320974 -0.763819 14.873364 -0.330764 -0.562300 14.872950 -0.390071 -0.535389 0.410076 7.394435 1.033105 -7.115501 21.313711 12.106974 -0.000000 0.000000 -0.000000 -37.572529 -4.856989 1.678892 -40.221871 -6.563720 -63.023781 -0.000010 -63.338270 -0.000014 -118.796702 2.008057 31.889105 4.437964 8.725642 3.094411 19.473192 -1.474924 7.636928 -4.536192 -9.613094 1.492966 -0.000000 0.000000 -0.000001 -0.356307 3.762295 -37.024263 2.942620 5.079184 -60.150075 0.513682 2.400820 -24.150504 0.000001 -0.000000 0.000001 0.405927 5.507044 -52.453151 3.387132 5.308620 -65.057477 0.282019 1.797462 -17.832371 -0.000002 0.000003 0.000000 -0.074384 5.736784 -61.061413 4.088086 5.580032 -72.435365 0.582673 2.548968 -25.748013 0.000001 0.000000 0.000002 -5.744601 4.664005 -71.673922 3.397920 5.313592 -65.173740 0.235555 1.646146 -16.286480 -0.000000 -0.000001 -0.000004 -41.264981 -8.601624 -10.404542 -45.429285 59.238306 100.629491 0.000051 97.768441 -0.000076 -53.491142 -16.372587 -29.732920 8.377150 -4.904122 11.022009 21.620190 -18.183908 -18.379225 -0.702894 -49.821206 -32.535145 -0.000000 0.000000 0.000003 -0.937159 1.659118 12.682759 0.801464 -2.614002 34.086209 0.615646 -2.316066 29.767832 0.000000 0.000000 -0.000001 3.413059 -7.186267 51.650256 6.296821 -4.359580 110.634687 0.248716 -1.503059 18.790264 -0.000000 -0.000000 0.000000 -3.349041 -2.600432 57.010575 5.440856 -4.590913 99.698168 1.689404 -3.590706 50.382248 -0.000000 -0.000001 0.000003 -3.996436 -3.303945 64.593864 4.058844 -4.618669 82.610523 2.315546 -4.026786 59.787200 -0.000000 -0.000001 0.000001 -19.622596 43.107042 26.877115 24.814299 -0.763493 -0.863031 0.210349 2.136520 -2.016524 -3.026037 0.000003 -0.000001 -0.000000 -0.000000 -0.000000 9.441621 4.497042 -8.479337 27.346122 0.015833 1.562736 -21.609906 -18.446905 5.477761 1.835071 0.000010 0.000001 0.000000 -0.000002 0.000000 
1.826430 90.305290 -0.544687 -16.741472 -37.548077 -8.494641 9.118205 -0.358147 -0.424641 14.457801 -0.360172 -0.495984 14.456719 -0.417472 -0.468572 0.561109 7.243166 1.182104 -6.700012 20.986397 12.002078 0.000001 -0.000001 -0.000001 -37.580500 -4.953510 1.682451 -39.869938 -6.522056 -63.362026 0.000027 -62.845076 0.000031 -118.753671 2.191166 31.624770 4.369751 8.517161 3.089482 19.473195 -1.474920 7.636925 -4.536189 -9.613090 1.492968 0.000002 -0.000002 -0.000000 -0.392444 3.719659 -37.093634 2.942749 5.079259 -60.151488 0.513680 2.400820 -24.150506 -0.000001 -0.000000 -0.000001 0.405928 5.507043 -52.453148 3.387134 5.308617 -65.057477 0.282017 1.797464 -17.832372 -0.000001 -0.000002 -0.000002 -0.074384 5.736785 -61.061420 4.096370 5.582641 -72.520483 0.582667 2.548972 -25.748010 -0.000000 -0.000001 -0.000002 -5.539874 4.697309 -71.486638 3.422611 5.324906 -65.440268 0.251986 1.701301 -16.848456 -0.000000 -0.000002 0.000001 -40.288349 -8.620716 -9.821990 -44.981761 59.236509 99.820025 0.000084 97.779151 -0.000041 -53.231421 -16.798835 -29.691239 8.377150 -4.904123 11.022009 21.620192 -18.183905 -18.379219 -0.702895 -49.821206 -32.535138 -0.000002 0.000001 0.000002 -0.941427 1.653009 12.744696 0.815044 -2.633971 34.383213 0.615646 -2.316064 29.767832 0.000000 0.000000 -0.000000 3.413058 -7.186267 51.650256 6.296820 -4.359580 110.634687 0.248717 -1.503059 18.790262 -0.000000 -0.000000 0.000000 -3.349042 -2.600432 57.010568 5.440855 -4.590912 99.698168 1.689403 -3.590706 50.382252 0.000000 0.000000 -0.000000 -3.996435 -3.303946 64.593864 4.058844 -4.618671 82.610523 2.315546 -4.026786 59.787200 0.000000 -0.000000 0.000001 -20.280039 42.957956 27.145327 25.954738 -0.952824 -0.890876 -0.662518 2.030662 -0.709865 -4.209726 0.000001 0.000001 0.000000 0.000001 0.000000 9.827634 4.076169 -8.632096 27.129861 0.301192 1.797790 -21.789407 -18.572816 5.538596 2.303998 0.000010 0.000001 0.000000 -0.000000 0.000000 
